<svg width="90" height="90" viewBox="0 0 90 90" fill="none" xmlns="http://www.w3.org/2000/svg">
<path d="M88.6556 44.5778C88.6556 68.9213 68.9213 88.6556 44.5778 88.6556C20.2343 88.6556 0.5 68.9213 0.5 44.5778C0.5 20.2343 20.2343 0.5 44.5778 0.5C68.9213 0.5 88.6556 20.2343 88.6556 44.5778Z" fill="white" stroke="#CCCCCC"/>
<path d="M29.3249 31.6895C27.2271 31.6895 25.5107 33.1482 25.5107 34.9312V54.3816C25.5107 56.1646 27.2271 57.6234 29.3249 57.6234H49.3491C48.8304 56.5928 48.5085 55.4985 48.3956 54.3816H29.3249V38.1729L44.5814 46.2773L59.838 38.1729V43.0355C60.1558 43.0259 60.4738 43.0259 60.7915 43.0355C61.7552 43.038 62.7152 43.1359 63.6522 43.3273V34.9312C63.6522 33.1482 61.9358 31.6895 59.838 31.6895H29.3249ZM29.3249 34.9312H59.838L44.5814 43.0355L29.3249 34.9312ZM59.838 44.6564L55.5471 48.3034L59.838 51.9503V49.519C61.1025 49.519 62.3152 49.946 63.2093 50.7059C64.1034 51.4658 64.6057 52.4965 64.6057 53.5712C64.6057 54.2196 64.4341 54.8355 64.1099 55.3866L66.1886 57.1533C66.9895 56.1322 67.4663 54.9003 67.4663 53.5712C67.4663 49.9891 64.0526 47.0877 59.838 47.0877V44.6564ZM53.4875 49.9891C52.6865 51.0102 52.2097 52.2421 52.2097 53.5712C52.2097 57.1533 55.6234 60.0547 59.838 60.0547V62.486L64.1289 58.839L59.838 55.1921V57.6234C58.5736 57.6234 57.3609 57.1965 56.4668 56.4365C55.5726 55.6766 55.0703 54.6459 55.0703 53.5712C55.0703 52.9229 55.242 52.3069 55.5662 51.7558L53.4875 49.9891Z" fill="#03507D"/>
</svg>
