<svg width="89" height="89" viewBox="0 0 89 89" fill="none" xmlns="http://www.w3.org/2000/svg">
<path d="M88.5 44.5C88.5 68.8005 68.8005 88.5 44.5 88.5C20.1995 88.5 0.5 68.8005 0.5 44.5C0.5 20.1995 20.1995 0.5 44.5 0.5C68.8005 0.5 88.5 20.1995 88.5 44.5Z" fill="white" stroke="#CCCCCC"/>
<path d="M45 26V30M55 28.68L53 32.144M62.32 36L58.856 38M65 46H61M62.32 56L58.856 54M55 63.32L53 59.856M45 66V62M35 63.32L37 59.856M27.68 56L31.144 54M25 46H29M27.68 36L31.144 38M35 28.68L37 32.144" stroke="#03507D" stroke-width="4" stroke-linecap="round" stroke-linejoin="round"/>
</svg>
