<svg width="29" height="29" viewBox="0 0 29 29" fill="none" xmlns="http://www.w3.org/2000/svg">
<path d="M14.5 0C22.5084 0 29 6.49165 29 14.5C29 22.5084 22.5084 29 14.5 29C6.49165 29 0 22.5084 0 14.5C0 6.49165 6.49165 0 14.5 0ZM15.8572 8.19105C15.3874 6.9368 13.6126 6.9368 13.1428 8.19105L8.7928 19.791C8.65796 20.151 8.67156 20.5498 8.83062 20.8997C8.98969 21.2496 9.28119 21.5221 9.64105 21.6572L9.802 21.708C10.147 21.7931 10.5113 21.7486 10.8256 21.5828C11.14 21.4171 11.3825 21.1417 11.5072 20.809L12.2424 18.85H16.7577L17.4928 20.809C17.556 20.992 17.6552 21.1606 17.7845 21.3047C17.9139 21.4488 18.0708 21.5655 18.246 21.648C18.4213 21.7304 18.6112 21.777 18.8047 21.7848C18.9982 21.7927 19.1913 21.7617 19.3726 21.6937C19.554 21.6257 19.7198 21.5221 19.8604 21.3889C20.0011 21.2558 20.1136 21.0958 20.1914 20.9185C20.2692 20.7411 20.3106 20.55 20.3134 20.3564C20.3161 20.1627 20.28 19.9705 20.2072 19.791L15.8572 8.19105ZM14.5 12.8296L15.6702 15.95H13.3299L14.5 12.8296Z" fill="#49454F"/>
</svg>
