<svg width="72" height="72" viewBox="0 0 89 89" fill="none" xmlns="http://www.w3.org/2000/svg">
<path d="M88.5 44.5C88.5 68.8005 68.8005 88.5 44.5 88.5C20.1995 88.5 0.5 68.8005 0.5 44.5C0.5 20.1995 20.1995 0.5 44.5 0.5C68.8005 0.5 88.5 20.1995 88.5 44.5Z" fill="white" stroke="#CCCCCC"/>
<path d="M58.971 29.0879H29.9955C28.7645 29.0879 27.7666 29.925 27.7666 30.9577V60.8743C27.7666 61.907 28.7645 62.7441 29.9955 62.7441H58.971C60.202 62.7441 61.1999 61.907 61.1999 60.8743V30.9577C61.1999 29.925 60.202 29.0879 58.971 29.0879Z" stroke="#03507D" stroke-width="4" stroke-linejoin="round"/>
<path d="M37.7963 25.3477V30.957M51.1696 25.3477V30.957M35.5674 39.3711H53.3985M35.5674 46.8502H48.9407M35.5674 54.3294H44.4829" stroke="#03507D" stroke-width="4" stroke-linecap="round" stroke-linejoin="round"/>
</svg>
