<svg width="20" height="20" viewBox="0 0 20 17" fill="none" xmlns="http://www.w3.org/2000/svg">
<path d="M7 3.38391e-09C7.2198 -1.80724e-05 7.43348 0.0723807 7.608 0.206L7.708 0.293L10.414 3H17C17.7652 2.99996 18.5015 3.29233 19.0583 3.81728C19.615 4.34224 19.9501 5.06011 19.995 5.824L20 6V14C20 14.7652 19.7077 15.5015 19.1827 16.0583C18.6578 16.615 17.9399 16.9501 17.176 16.995L17 17H3C2.23479 17 1.49849 16.7077 0.941739 16.1827C0.384993 15.6578 0.0498925 14.9399 0.00500012 14.176L4.66045e-09 14V3C-4.26217e-05 2.23479 0.292325 1.49849 0.817284 0.941739C1.34224 0.384993 2.06011 0.0498925 2.824 0.00500012L3 3.38391e-09H7Z" fill="#656565"/>
</svg>
