<svg width="29" height="29" viewBox="0 0 29 29" fill="none" xmlns="http://www.w3.org/2000/svg">
<path d="M14.4736 9.25C13.3127 9.25 12.3866 9.66228 11.6954 10.4869C11.0043 11.3114 10.6582 12.5454 10.6582 14.1882C10.6582 16.11 11.1536 17.4865 12.143 18.3173C12.7839 18.8562 13.5524 19.1259 14.4466 19.1259C14.7744 19.1271 15.101 19.0855 15.4181 19.0022C15.6423 18.9383 15.8618 18.8587 16.0749 18.7639L14.6549 17.4135L16.1595 15.8417L17.5849 17.1834C17.8067 16.7272 17.9623 16.3275 18.0513 15.9853C18.191 15.4715 18.2601 14.8721 18.2601 14.1873C18.2601 12.6145 17.9382 11.3979 17.2944 10.5386C16.6506 9.6792 15.7105 9.25 14.4736 9.25Z" fill="#6E6E6E"/>
<path d="M14.5 0C6.49213 0 0 6.49213 0 14.5C0 22.5079 6.49213 29 14.5 29C22.5079 29 29 22.5079 29 14.5C29 6.49213 22.5079 0 14.5 0ZM19.7263 22.2333L18.0414 20.635C17.5271 20.9472 17.0834 21.1666 16.7083 21.2937C16.0795 21.5045 15.3275 21.6089 14.4512 21.6089C12.6227 21.6089 11.1123 21.0637 9.91897 19.9723C8.4709 18.6596 7.74687 16.7311 7.74687 14.1878C7.74687 11.6247 8.48878 9.68697 9.97358 8.37423C11.1848 7.30268 12.6914 6.76667 14.4923 6.76667C16.3067 6.76667 17.8292 7.33458 19.0593 8.46993C20.4798 9.78267 21.1908 11.6193 21.1908 13.9785C21.1908 15.2279 21.039 16.2748 20.734 17.1182C20.4875 17.9225 20.1241 18.5904 19.6436 19.1221L21.2531 20.6383L19.7263 22.2333Z" fill="#6E6E6E"/>
</svg>
