<svg width="72" height="72" viewBox="0 0 89 89" fill="none" xmlns="http://www.w3.org/2000/svg">
<path d="M88.5 44.5C88.5 68.8005 68.8005 88.5 44.5 88.5C20.1995 88.5 0.5 68.8005 0.5 44.5C0.5 20.1995 20.1995 0.5 44.5 0.5C68.8005 0.5 88.5 20.1995 88.5 44.5Z" fill="white" stroke="#CCCCCC"/>
<path d="M44 25V29M54 27.68L52 31.144M61.32 35L57.856 37M64 45H60M61.32 55L57.856 53M54 62.32L52 58.856M44 65V61M34 62.32L36 58.856M26.68 55L30.144 53M24 45H28M26.68 35L30.144 37M34 27.68L36 31.144" stroke="#03507D" stroke-width="4" stroke-linecap="round" stroke-linejoin="round"/>
</svg>
