<svg width="72" height="72" viewBox="0 0 90 90" fill="none" xmlns="http://www.w3.org/2000/svg">
<path d="M88.6556 44.5778C88.6556 68.9213 68.9213 88.6556 44.5778 88.6556C20.2343 88.6556 0.5 68.9213 0.5 44.5778C0.5 20.2343 20.2343 0.5 44.5778 0.5C68.9213 0.5 88.6556 20.2343 88.6556 44.5778Z" fill="white" stroke="#CCCCCC"/>
<path d="M47.9678 26.4688C47.9678 25.5156 47.6188 24.6015 46.9976 23.9276C46.3764 23.2536 45.5338 22.875 44.6553 22.875C43.7767 22.875 42.9342 23.2536 42.313 23.9276C41.6918 24.6015 41.3428 25.5156 41.3428 26.4688C41.3428 27.4219 41.6918 28.336 42.313 29.0099C42.9342 29.6839 43.7767 30.0625 44.6553 30.0625C45.5338 30.0625 46.3764 29.6839 46.9976 29.0099C47.6188 28.336 47.9678 27.4219 47.9678 26.4688ZM30.0803 38.6875C30.9588 38.6875 31.8014 38.3089 32.4226 37.6349C33.0438 36.961 33.3928 36.0469 33.3928 35.0938C33.3928 34.1406 33.0438 33.2265 32.4226 32.5526C31.8014 31.8786 30.9588 31.5 30.0803 31.5C29.2017 31.5 28.3592 31.8786 27.738 32.5526C27.1168 33.2265 26.7678 34.1406 26.7678 35.0938C26.7678 36.0469 27.1168 36.961 27.738 37.6349C28.3592 38.3089 29.2017 38.6875 30.0803 38.6875ZM20.8053 57.375C19.3395 57.375 18.1553 58.6598 18.1553 60.25C18.1553 61.8402 19.3395 63.125 20.8053 63.125H68.5053C69.9711 63.125 71.1553 61.8402 71.1553 60.25C71.1553 58.6598 69.9711 57.375 68.5053 57.375H20.8053ZM59.2303 38.6875C60.1088 38.6875 60.9514 38.3089 61.5726 37.6349C62.1938 36.961 62.5428 36.0469 62.5428 35.0938C62.5428 34.1406 62.1938 33.2265 61.5726 32.5526C60.9514 31.8786 60.1088 31.5 59.2303 31.5C58.3517 31.5 57.5092 31.8786 56.888 32.5526C56.2668 33.2265 55.9178 34.1406 55.9178 35.0938C55.9178 36.0469 56.2668 36.961 56.888 37.6349C57.5092 38.3089 58.3517 38.6875 59.2303 38.6875ZM34.7178 48.166L36.9454 52.6492C37.4671 53.7004 38.6679 54.0867 39.6368 53.5297C40.6057 52.9727 40.9618 51.6609 40.4484 50.6098L37.4423 44.5453C37.5831 44.3926 37.7073 44.2219 37.7984 44.0242L40.0178 39.541V44.4375C40.0178 46.0277 41.202 47.3125 42.6678 47.3125H46.6428C48.1086 47.3125 49.2928 46.0277 49.2928 44.4375V39.541L51.5204 44.0242C51.6198 44.2219 51.7357 44.3926 51.8765 44.5453L48.8704 50.6098C48.3487 51.6609 48.7131 52.9637 49.682 53.5297C50.6509 54.0957 51.8517 53.7004 52.3734 52.6492L54.5928 48.166V51.625C54.5928 53.2152 55.777 54.5 57.2428 54.5H61.2178C62.6836 54.5 63.8678 53.2152 63.8678 51.625V48.166L66.0954 52.6492C66.6172 53.7004 67.8179 54.0867 68.7868 53.5297C69.7557 52.9727 70.1118 51.6609 69.5984 50.6098L66.4598 44.2937C65.1928 41.7332 62.725 40.134 60.0418 40.134H58.427C57.0771 40.134 55.7853 40.5383 54.6673 41.266L51.8848 35.6687C50.6178 33.1082 48.15 31.509 45.4668 31.509H43.852C41.1689 31.509 38.7093 33.1082 37.434 35.6687L34.6515 41.266C33.5336 40.5383 32.2417 40.134 30.8918 40.134H29.277C26.5939 40.134 24.1343 41.7332 22.859 44.2937L19.7204 50.6008C19.1987 51.652 19.5631 52.9547 20.532 53.5207C21.5009 54.0867 22.7017 53.6914 23.2234 52.6402L25.4428 48.166V51.625C25.4428 53.2152 26.627 54.5 28.0928 54.5H32.0678C33.5336 54.5 34.7178 53.2152 34.7178 51.625V48.166Z" fill="#03507D"/>
</svg>
