<svg width="72" height="72" viewBox="0 0 89 89" fill="none" xmlns="http://www.w3.org/2000/svg">
<path d="M88.5 44.5C88.5 68.8005 68.8005 88.5 44.5 88.5C20.1995 88.5 0.5 68.8005 0.5 44.5C0.5 20.1995 20.1995 0.5 44.5 0.5C68.8005 0.5 88.5 20.1995 88.5 44.5Z" fill="white" stroke="#CCCCCC"/>
<path d="M26.8141 32C24.7164 32 23 33.4588 23 35.2417V54.6922C23 56.4751 24.7164 57.9339 26.8141 57.9339H46.8384C46.3197 56.9033 45.9978 55.809 45.8848 54.6922H26.8141V38.4835L42.0707 46.5878L57.3273 38.4835V43.3461C57.645 43.3364 57.9631 43.3364 58.2808 43.3461C59.2444 43.3485 60.2045 43.4464 61.1414 43.6379V35.2417C61.1414 33.4588 59.4251 32 57.3273 32H26.8141ZM26.8141 35.2417H57.3273L42.0707 43.3461L26.8141 35.2417ZM57.3273 44.967L53.0364 48.6139L57.3273 52.2609V49.8296C58.5917 49.8296 59.8044 50.2565 60.6985 51.0164C61.5926 51.7764 62.0949 52.8071 62.0949 53.8818C62.0949 54.5301 61.9233 55.146 61.5991 55.6971L63.6778 57.4639C64.4788 56.4427 64.9556 55.2109 64.9556 53.8818C64.9556 50.2996 61.5419 47.3983 57.3273 47.3983V44.967ZM50.9767 50.2996C50.1758 51.3208 49.699 52.5526 49.699 53.8818C49.699 57.4639 53.1126 60.3652 57.3273 60.3652V62.7965L61.6182 59.1496L57.3273 55.5026V57.9339C56.0628 57.9339 54.8501 57.507 53.956 56.7471C53.0619 55.9871 52.5596 54.9565 52.5596 53.8818C52.5596 53.2334 52.7312 52.6175 53.0554 52.0664L50.9767 50.2996Z" fill="#03507D"/>
</svg>
